<?xml version="1.0" encoding="utf-8"?>
<!-- Generator: Adobe Illustrator 16.0.0, SVG Export Plug-In . SVG Version: 6.00 Build 0)  -->
<!DOCTYPE svg PUBLIC "-//W3C//DTD SVG 1.1//EN" "http://www.w3.org/Graphics/SVG/1.1/DTD/svg11.dtd">
<svg version="1.1" id="Layer_3" xmlns="http://www.w3.org/2000/svg" xmlns:xlink="http://www.w3.org/1999/xlink" x="0px" y="0px"
	 width="721.512px" height="342.623px" viewBox="0 0 721.512 342.623" enable-background="new 0 0 721.512 342.623"
	 xml:space="preserve">
<polygon points="230.591,213.754 230.591,327.594 244.638,327.594 244.623,301.497 267.081,327.594 277.884,319.98 252.14,289.472 
	277.61,267.263 263.926,264.724 244.623,282.955 245.949,217.5 "/>
<path d="M281.397,275.938l-0.185,51.654h14.349c0,0-6.146-37.623,20.417-51.154l-10.524-8.019c0,0-12.028,9.021-12.53,22.552
	v-15.033H281.397z"/>
<path d="M399.655,279.786l2.508,47.135h14.33c0,0-1.435-59.465,8.238-42.627c0,0,4.299,7.52-3.226,42.627h11.465
	c0,0,8.239-72.003-11.465-62.332c0,0-4.657,0-13.971,22.568v-7.835L399.655,279.786z"/>
<path d="M388.6,275.142c0,0-14.565-15.422-28.785,21.246c0,0-31.214,18.984-44.738,17.599c0,0,45.432-21.156,35.373-38.151
	c0,0-11.443-15.256-35.373,6.592c0,0-19.075,18.032-10.058,37.456c0,0,10.75,16.646,36.761,1.387l11.792-6.938
	c0,0,3.468,21.506,27.052,8.325l6.242-4.855v7.977h11.097v-54.131H388.6V275.142z M313.605,300.621
	c-1.129-1.513,3.892-7.165,11.215-12.62c7.321-5.458,14.171-8.646,15.301-7.131c1.128,1.516-3.891,7.168-11.211,12.62
	C321.588,298.944,314.737,302.142,313.605,300.621z M386.591,301.606c-4.224,9.401-11.692,15.211-16.677,12.972
	s-5.604-11.681-1.379-21.085c4.227-9.404,11.691-15.211,16.679-12.973C390.199,282.76,390.814,292.199,386.591,301.606z"/>
<path d="M710.638,281.729l-16.418,10.543c0,0-33.802,22.579-47.771,21.145c0,0,46.931-21.852,36.541-39.404
	c0,0-11.821-15.762-36.541,6.809c0,0-19.702,18.625-10.389,38.688c0,0,11.104,17.194,37.972,1.433l12.182-7.165l27.413-17.748
	L710.638,281.729z M644.93,299.614c-1.167-1.564,4.019-7.401,11.583-13.036c7.563-5.636,14.638-8.933,15.806-7.368
	c1.168,1.568-4.019,7.404-11.579,13.039C653.173,297.885,646.098,301.183,644.93,299.614z"/>
<path d="M469.117,214.386v54.67c0,0-42.479-1.318-30.772,40.447c0,0,10.389,25.792,43.703,14.33V295.76v-81.187L469.117,214.386z
	 M447.658,301.624c-4.275-21.95,21.494-24.924,21.494-24.924l-0.035,39.23C449.808,318.262,447.658,301.624,447.658,301.624z"/>
<path d="M512.863,262.876c-16.225,0-29.374,14.521-29.374,32.432c0,17.913,13.149,32.433,29.374,32.433
	c16.224,0,29.375-14.52,29.375-32.433C542.238,277.397,529.086,262.876,512.863,262.876z M513.4,316.874
	c-9.397,0-17.017-9.546-17.017-21.321c0-11.772,7.618-21.323,17.017-21.323c9.397,0,17.017,9.551,17.017,21.323
	C530.417,307.328,522.798,316.874,513.4,316.874z"/>
<path d="M553.007,283.531l11.822,44.063h16.12c0,0-5.732-44.78,8.238-44.063c0,0,12.537,1.071,4.299,44.063h14.688
	c0,0-9.674-46.229,9.313-44.071c0,0,8.957,5.383,1.791,44.071h13.254c0,0,7.882-69.815-20.062-57.297c0,0-5.015,2.575-8.597,9.695
	c0,0-8.596-18.987-24.718-9.695c0,0-9.315,5.32-11.465,27.368l-4.3-17.206L553.007,283.531z"/>
<circle cx="548.797" cy="320.197" r="6.559"/>
<path fill="none" d="M315.384,224.448c0.111-0.27,0.217-0.551,0.318-0.844C315.6,223.89,315.489,224.167,315.384,224.448z"/>
<path fill="none" stroke="#000000" stroke-miterlimit="10" d="M315.384,224.448"/>
<g>
	<path stroke="#000000" stroke-linecap="round" stroke-linejoin="round" stroke-miterlimit="10" d="M139.621,324.323
		c9.267,1.705,18.82,2.598,28.58,2.598c17.318,0,33.981-2.805,49.559-7.986l-0.194-0.326
		c-57.561-95.92-74.274-104.684-74.274-104.684c-13.491-13.828-3.671,109.938-3.671,109.938V324.323z"/>
	<path stroke="#000000" stroke-linecap="round" stroke-linejoin="round" stroke-miterlimit="10" d="M24.835,106.211
		c-5.208-0.678-13.529,41.091-13.529,63.815c0,72.653,49.382,133.771,116.413,151.625
		C127.719,321.651,52.017,109.753,24.835,106.211z"/>
	<path stroke="#000000" stroke-linecap="round" stroke-linejoin="round" stroke-miterlimit="10" d="M315.384,224.448
		c0.104-0.281,0.215-0.561,0.318-0.844c0.04-0.112,0.083-0.223,0.121-0.34c-0.038,0.117-0.081,0.228-0.121,0.34
		c0.041-0.111,0.086-0.223,0.127-0.338c5.997-16.623,9.265-34.551,9.265-53.241c0-86.651-70.243-156.894-156.894-156.894
		c-9,0-17.823,0.757-26.41,2.211l-0.074,0.292c0,0-38.085,174.813-14.072,157.353c0,0,52.969-112.447,62.393-85.163l9.366,64.601
		c0,0,4.645,27.876-27.963,25.787c0,0-48.633,1.77-30.516,11.305l164.477,41.012c0,0,7.644,1.203,10.345-6.985"/>
</g>
</svg>
