<?xml version="1.0" encoding="utf-8"?>
<!-- Generator: Adobe Illustrator 16.0.0, SVG Export Plug-In . SVG Version: 6.00 Build 0)  -->
<!DOCTYPE svg PUBLIC "-//W3C//DTD SVG 1.1//EN" "http://www.w3.org/Graphics/SVG/1.1/DTD/svg11.dtd">
<svg version="1.1" id="Layer_1" xmlns="http://www.w3.org/2000/svg" xmlns:xlink="http://www.w3.org/1999/xlink" x="0px" y="0px"
	 width="250px" height="250px" viewBox="0 0 250 250" enable-background="new 0 0 250 250" xml:space="preserve">
<g>
	<path fill="#DB594C" stroke="#DB594C" stroke-linecap="round" stroke-linejoin="round" stroke-miterlimit="10" d="M102.408,244.962
		c7.266,1.324,14.754,2.019,22.407,2.019c13.578,0,26.642-2.18,38.856-6.206l-0.152-0.253
		c-45.129-74.527-58.233-81.334-58.233-81.334c-10.578-10.746-2.878,85.419-2.878,85.419V244.962z"/>
	<path fill="#DB594C" stroke="#DB594C" stroke-linecap="round" stroke-linejoin="round" stroke-miterlimit="10" d="M12.413,75.497
		C8.329,74.97,1.805,107.422,1.805,125.077c0,56.45,38.717,103.937,91.271,117.81C93.076,242.887,33.724,78.248,12.413,75.497z"/>
	<path fill="#DB594C" stroke="#DB594C" stroke-linecap="round" stroke-linejoin="round" stroke-miterlimit="10" d="M240.21,167.363
		c0.083-0.221,0.169-0.438,0.25-0.657c0.031-0.086,0.065-0.174,0.096-0.263c-0.03,0.089-0.064,0.177-0.096,0.263
		c0.031-0.086,0.067-0.174,0.1-0.263c4.702-12.914,7.264-26.847,7.264-41.366c0-67.325-55.072-121.901-123.009-121.901
		c-7.056,0-13.975,0.589-20.707,1.718L104.05,5.12c0,0-29.86,135.822-11.033,122.258c0,0,41.529-87.366,48.919-66.167l7.342,50.191
		c0,0,3.644,21.66-21.923,20.035c0,0-38.13,1.376-23.926,8.783l128.953,31.865c0,0,5.995,0.937,8.111-5.426"/>
</g>
</svg>
